<?xml version="1.0" encoding="UTF-8"?>
<svg xmlns="http://www.w3.org/2000/svg" width="168.5mm" height="150.8mm" version="1.1" viewBox="0 0 477.5 427.4">
  <!-- Generator: Adobe Illustrator 28.6.0, SVG Export Plug-In . SVG Version: 1.2.0 Build 709)  -->
  <g>
    <g id="labels">
      <text transform="translate(22.6 18)" font-family="ArialMT, Arial" font-size="16"><tspan x="0" y="0">C</tspan></text>
      <text transform="translate(79.3 18)" font-family="ArialMT, Arial" font-size="16"><tspan x="0" y="0">D</tspan></text>
      <text transform="translate(103.2 18)" font-family="ArialMT, Arial" font-size="16"><tspan x="0" y="0">D#</tspan></text>
      <text transform="translate(136.4 18)" font-family="ArialMT, Arial" font-size="16"><tspan x="0" y="0">E</tspan></text>
      <text transform="translate(193.5 18)" font-family="ArialMT, Arial" font-size="16"><tspan x="0" y="0">F</tspan></text>
      <text transform="translate(217.4 18)" font-family="ArialMT, Arial" font-size="16"><tspan x="0" y="0">F#</tspan></text>
      <text transform="translate(248.9 18)" font-family="ArialMT, Arial" font-size="16"><tspan x="0" y="0">G</tspan></text>
      <text transform="translate(306.5 18)" font-family="ArialMT, Arial" font-size="16"><tspan x="0" y="0">A</tspan></text>
      <text transform="translate(363.2 18)" font-family="ArialMT, Arial" font-size="16"><tspan x="0" y="0">B</tspan></text>
      <text transform="translate(416.4 18)" font-family="ArialMT, Arial" font-size="16"><tspan x="0" y="0">C2</tspan></text>
      <text transform="translate(443.8 18)" font-family="ArialMT, Arial" font-size="16"><tspan x="0" y="0">C2#</tspan></text>
      <text transform="translate(330.4 18)" font-family="ArialMT, Arial" font-size="16"><tspan x="0" y="0">A#</tspan></text>
      <text transform="translate(272.8 18)" font-family="ArialMT, Arial" font-size="16"><tspan x="0" y="0">G#</tspan></text>
      <text transform="translate(46.5 18)" font-family="ArialMT, Arial" font-size="16"><tspan x="0" y="0">C#</tspan></text>
      <rect y="30.5" width="467.7" height="396.9" fill="#e0e0e0"/>
    </g>
    <g id="section_guides" display="none">
      <g>
        <rect x="15.6" y="386.3" width="25.5" height="26.9" fill="#46d3bb"/>
        <rect x="15.6" y="357.9" width="25.5" height="26.9" fill="#46d3bb"/>
        <rect x="15.6" y="329.6" width="25.5" height="26.9" fill="#46d3bb"/>
        <rect x="15.6" y="301.2" width="25.5" height="26.9" fill="#46d3bb"/>
        <rect x="15.6" y="272.9" width="25.5" height="26.9" fill="#46d3bb"/>
        <rect x="15.6" y="244.5" width="25.5" height="26.9" fill="#46d3bb"/>
        <rect x="15.6" y="216.2" width="25.5" height="26.9" fill="#46d3bb"/>
        <rect x="15.6" y="187.8" width="25.5" height="26.9" fill="#46d3bb"/>
        <rect x="15.6" y="159.5" width="25.5" height="26.9" fill="#46d3bb"/>
        <rect x="15.6" y="131.1" width="25.5" height="26.9" fill="#46d3bb"/>
        <rect x="15.6" y="102.8" width="25.5" height="26.9" fill="#46d3bb"/>
        <rect x="15.6" y="74.4" width="25.5" height="26.9" fill="#46d3bb"/>
        <rect x="15.6" y="44.7" width="25.5" height="28.3" fill="#46d3bb"/>
      </g>
      <g>
        <rect x="185.7" y="386.3" width="25.5" height="26.9" fill="#46d3bb"/>
        <rect x="185.7" y="357.9" width="25.5" height="26.9" fill="#46d3bb"/>
        <rect x="185.7" y="329.6" width="25.5" height="26.9" fill="#46d3bb"/>
        <rect x="185.7" y="301.2" width="25.5" height="26.9" fill="#46d3bb"/>
        <rect x="185.7" y="272.9" width="25.5" height="26.9" fill="#46d3bb"/>
        <rect x="185.7" y="244.5" width="25.5" height="26.9" fill="#46d3bb"/>
        <rect x="185.7" y="216.2" width="25.5" height="26.9" fill="#46d3bb"/>
        <rect x="185.7" y="187.8" width="25.5" height="26.9" fill="#46d3bb"/>
        <rect x="185.7" y="159.5" width="25.5" height="26.9" fill="#46d3bb"/>
        <rect x="185.7" y="131.1" width="25.5" height="26.9" fill="#46d3bb"/>
        <rect x="185.7" y="102.8" width="25.5" height="26.9" fill="#46d3bb"/>
        <rect x="185.7" y="74.4" width="25.5" height="26.9" fill="#46d3bb"/>
        <rect x="185.7" y="44.7" width="25.5" height="28.3" fill="#46d3bb"/>
      </g>
      <g>
        <rect x="242.4" y="386.3" width="25.5" height="26.9" fill="#46d3bb"/>
        <rect x="242.4" y="357.9" width="25.5" height="26.9" fill="#46d3bb"/>
        <rect x="242.4" y="329.6" width="25.5" height="26.9" fill="#46d3bb"/>
        <rect x="242.4" y="301.2" width="25.5" height="26.9" fill="#46d3bb"/>
        <rect x="242.4" y="272.9" width="25.5" height="26.9" fill="#46d3bb"/>
        <rect x="242.4" y="244.5" width="25.5" height="26.9" fill="#46d3bb"/>
        <rect x="242.4" y="216.2" width="25.5" height="26.9" fill="#46d3bb"/>
        <rect x="242.4" y="187.8" width="25.5" height="26.9" fill="#46d3bb"/>
        <rect x="242.4" y="159.5" width="25.5" height="26.9" fill="#46d3bb"/>
        <rect x="242.4" y="131.1" width="25.5" height="26.9" fill="#46d3bb"/>
        <rect x="242.4" y="102.8" width="25.5" height="26.9" fill="#46d3bb"/>
        <rect x="242.4" y="74.4" width="25.5" height="26.9" fill="#46d3bb"/>
        <rect x="242.4" y="44.7" width="25.5" height="28.3" fill="#46d3bb"/>
      </g>
      <g>
        <rect x="299.1" y="386.3" width="25.5" height="26.9" fill="#46d3bb"/>
        <rect x="299.1" y="357.9" width="25.5" height="26.9" fill="#46d3bb"/>
        <rect x="299.1" y="329.6" width="25.5" height="26.9" fill="#46d3bb"/>
        <rect x="299.1" y="301.2" width="25.5" height="26.9" fill="#46d3bb"/>
        <rect x="299.1" y="272.9" width="25.5" height="26.9" fill="#46d3bb"/>
        <rect x="299.1" y="244.5" width="25.5" height="26.9" fill="#46d3bb"/>
        <rect x="299.1" y="216.2" width="25.5" height="26.9" fill="#46d3bb"/>
        <rect x="299.1" y="187.8" width="25.5" height="26.9" fill="#46d3bb"/>
        <rect x="299.1" y="159.5" width="25.5" height="26.9" fill="#46d3bb"/>
        <rect x="299.1" y="131.1" width="25.5" height="26.9" fill="#46d3bb"/>
        <rect x="299.1" y="102.8" width="25.5" height="26.9" fill="#46d3bb"/>
        <rect x="299.1" y="74.4" width="25.5" height="26.9" fill="#46d3bb"/>
        <rect x="299.1" y="44.7" width="25.5" height="28.3" fill="#46d3bb"/>
      </g>
      <g>
        <rect x="355.7" y="386.3" width="25.5" height="26.9" fill="#46d3bb"/>
        <rect x="355.7" y="357.9" width="25.5" height="26.9" fill="#46d3bb"/>
        <rect x="355.7" y="329.6" width="25.5" height="26.9" fill="#46d3bb"/>
        <rect x="355.7" y="301.2" width="25.5" height="26.9" fill="#46d3bb"/>
        <rect x="355.7" y="272.9" width="25.5" height="26.9" fill="#46d3bb"/>
        <rect x="355.7" y="244.5" width="25.5" height="26.9" fill="#46d3bb"/>
        <rect x="355.7" y="216.2" width="25.5" height="26.9" fill="#46d3bb"/>
        <rect x="355.7" y="187.8" width="25.5" height="26.9" fill="#46d3bb"/>
        <rect x="355.7" y="159.5" width="25.5" height="26.9" fill="#46d3bb"/>
        <rect x="355.7" y="131.1" width="25.5" height="26.9" fill="#46d3bb"/>
        <rect x="355.7" y="102.8" width="25.5" height="26.9" fill="#46d3bb"/>
        <rect x="355.7" y="74.4" width="25.5" height="26.9" fill="#46d3bb"/>
        <rect x="355.7" y="44.7" width="25.5" height="28.3" fill="#46d3bb"/>
      </g>
      <g>
        <rect x="412.4" y="386.3" width="25.5" height="26.9" fill="#46d3bb"/>
        <rect x="412.4" y="357.9" width="25.5" height="26.9" fill="#46d3bb"/>
        <rect x="412.4" y="329.6" width="25.5" height="26.9" fill="#46d3bb"/>
        <rect x="412.4" y="301.2" width="25.5" height="26.9" fill="#46d3bb"/>
        <rect x="412.4" y="272.9" width="25.5" height="26.9" fill="#46d3bb"/>
        <rect x="412.4" y="244.5" width="25.5" height="26.9" fill="#46d3bb"/>
        <rect x="412.4" y="216.2" width="25.5" height="26.9" fill="#46d3bb"/>
        <rect x="412.4" y="187.8" width="25.5" height="26.9" fill="#46d3bb"/>
        <rect x="412.4" y="159.5" width="25.5" height="26.9" fill="#46d3bb"/>
        <rect x="412.4" y="131.1" width="25.5" height="26.9" fill="#46d3bb"/>
        <rect x="412.4" y="102.8" width="25.5" height="26.9" fill="#46d3bb"/>
        <rect x="412.4" y="74.4" width="25.5" height="26.9" fill="#46d3bb"/>
        <rect x="412.4" y="44.7" width="25.5" height="28.3" fill="#46d3bb"/>
      </g>
      <g>
        <rect x="72.3" y="386.3" width="25.5" height="26.9" fill="#46d3bb"/>
        <rect x="72.3" y="357.9" width="25.5" height="26.9" fill="#46d3bb"/>
        <rect x="72.3" y="329.6" width="25.5" height="26.9" fill="#46d3bb"/>
        <rect x="72.3" y="301.2" width="25.5" height="26.9" fill="#46d3bb"/>
        <rect x="72.3" y="272.9" width="25.5" height="26.9" fill="#46d3bb"/>
        <rect x="72.3" y="244.5" width="25.5" height="26.9" fill="#46d3bb"/>
        <rect x="72.3" y="216.2" width="25.5" height="26.9" fill="#46d3bb"/>
        <rect x="72.3" y="187.8" width="25.5" height="26.9" fill="#46d3bb"/>
        <rect x="72.3" y="159.5" width="25.5" height="26.9" fill="#46d3bb"/>
        <rect x="72.3" y="131.1" width="25.5" height="26.9" fill="#46d3bb"/>
        <rect x="72.3" y="102.8" width="25.5" height="26.9" fill="#46d3bb"/>
        <rect x="72.3" y="74.4" width="25.5" height="26.9" fill="#46d3bb"/>
        <rect x="72.3" y="44.7" width="25.5" height="28.3" fill="#46d3bb"/>
      </g>
      <g>
        <rect x="129" y="386.3" width="25.5" height="26.9" fill="#46d3bb"/>
        <rect x="129" y="357.9" width="25.5" height="26.9" fill="#46d3bb"/>
        <rect x="129" y="329.6" width="25.5" height="26.9" fill="#46d3bb"/>
        <rect x="129" y="301.2" width="25.5" height="26.9" fill="#46d3bb"/>
        <rect x="129" y="272.9" width="25.5" height="26.9" fill="#46d3bb"/>
        <rect x="129" y="244.5" width="25.5" height="26.9" fill="#46d3bb"/>
        <rect x="129" y="216.2" width="25.5" height="26.9" fill="#46d3bb"/>
        <rect x="129" y="187.8" width="25.5" height="26.9" fill="#46d3bb"/>
        <rect x="129" y="159.5" width="25.5" height="26.9" fill="#46d3bb"/>
        <rect x="129" y="131.1" width="25.5" height="26.9" fill="#46d3bb"/>
        <rect x="129" y="102.8" width="25.5" height="26.9" fill="#46d3bb"/>
        <rect x="129" y="74.4" width="25.5" height="26.9" fill="#46d3bb"/>
        <rect x="129" y="44.7" width="25.5" height="28.3" fill="#46d3bb"/>
      </g>
      <g>
        <rect x="43.9" y="386.3" width="25.5" height="26.9" fill="#ff57ab"/>
        <rect x="43.9" y="357.9" width="25.5" height="26.9" fill="#ff57ab"/>
        <rect x="43.9" y="329.6" width="25.5" height="26.9" fill="#ff57ab"/>
        <rect x="43.9" y="301.2" width="25.5" height="26.9" fill="#ff57ab"/>
        <rect x="43.9" y="272.9" width="25.5" height="26.9" fill="#ff57ab"/>
        <rect x="43.9" y="244.5" width="25.5" height="26.9" fill="#ff57ab"/>
        <rect x="43.9" y="216.2" width="25.5" height="26.9" fill="#ff57ab"/>
        <rect x="43.9" y="187.8" width="25.5" height="26.9" fill="#ff57ab"/>
        <rect x="43.9" y="159.5" width="25.5" height="26.9" fill="#ff57ab"/>
        <rect x="43.9" y="131.1" width="25.5" height="26.9" fill="#ff57ab"/>
        <rect x="43.9" y="102.8" width="25.5" height="26.9" fill="#ff57ab"/>
        <rect x="43.9" y="74.4" width="25.5" height="26.9" fill="#ff57ab"/>
        <rect x="43.9" y="44.7" width="25.5" height="28.3" fill="#ff57ab"/>
      </g>
      <g>
        <rect x="214" y="386.3" width="25.5" height="26.9" fill="#ff57ab"/>
        <rect x="214" y="357.9" width="25.5" height="26.9" fill="#ff57ab"/>
        <rect x="214" y="329.6" width="25.5" height="26.9" fill="#ff57ab"/>
        <rect x="214" y="301.2" width="25.5" height="26.9" fill="#ff57ab"/>
        <rect x="214" y="272.9" width="25.5" height="26.9" fill="#ff57ab"/>
        <rect x="214" y="244.5" width="25.5" height="26.9" fill="#ff57ab"/>
        <rect x="214" y="216.2" width="25.5" height="26.9" fill="#ff57ab"/>
        <rect x="214" y="187.8" width="25.5" height="26.9" fill="#ff57ab"/>
        <rect x="214" y="159.5" width="25.5" height="26.9" fill="#ff57ab"/>
        <rect x="214" y="131.1" width="25.5" height="26.9" fill="#ff57ab"/>
        <rect x="214" y="102.8" width="25.5" height="26.9" fill="#ff57ab"/>
        <rect x="214" y="74.4" width="25.5" height="26.9" fill="#ff57ab"/>
        <rect x="214" y="44.7" width="25.5" height="28.3" fill="#ff57ab"/>
      </g>
      <g>
        <rect x="270.7" y="386.3" width="25.5" height="26.9" fill="#ff57ab"/>
        <rect x="270.7" y="357.9" width="25.5" height="26.9" fill="#ff57ab"/>
        <rect x="270.7" y="329.6" width="25.5" height="26.9" fill="#ff57ab"/>
        <rect x="270.7" y="301.2" width="25.5" height="26.9" fill="#ff57ab"/>
        <rect x="270.7" y="272.9" width="25.5" height="26.9" fill="#ff57ab"/>
        <rect x="270.7" y="244.5" width="25.5" height="26.9" fill="#ff57ab"/>
        <rect x="270.7" y="216.2" width="25.5" height="26.9" fill="#ff57ab"/>
        <rect x="270.7" y="187.8" width="25.5" height="26.9" fill="#ff57ab"/>
        <rect x="270.7" y="159.5" width="25.5" height="26.9" fill="#ff57ab"/>
        <rect x="270.7" y="131.1" width="25.5" height="26.9" fill="#ff57ab"/>
        <rect x="270.7" y="102.8" width="25.5" height="26.9" fill="#ff57ab"/>
        <rect x="270.7" y="74.4" width="25.5" height="26.9" fill="#ff57ab"/>
        <rect x="270.7" y="44.7" width="25.5" height="28.3" fill="#ff57ab"/>
      </g>
      <g>
        <rect x="327.4" y="386.3" width="25.5" height="26.9" fill="#ff57ab"/>
        <rect x="327.4" y="357.9" width="25.5" height="26.9" fill="#ff57ab"/>
        <rect x="327.4" y="329.6" width="25.5" height="26.9" fill="#ff57ab"/>
        <rect x="327.4" y="301.2" width="25.5" height="26.9" fill="#ff57ab"/>
        <rect x="327.4" y="272.9" width="25.5" height="26.9" fill="#ff57ab"/>
        <rect x="327.4" y="244.5" width="25.5" height="26.9" fill="#ff57ab"/>
        <rect x="327.4" y="216.2" width="25.5" height="26.9" fill="#ff57ab"/>
        <rect x="327.4" y="187.8" width="25.5" height="26.9" fill="#ff57ab"/>
        <rect x="327.4" y="159.5" width="25.5" height="26.9" fill="#ff57ab"/>
        <rect x="327.4" y="131.1" width="25.5" height="26.9" fill="#ff57ab"/>
        <rect x="327.4" y="102.8" width="25.5" height="26.9" fill="#ff57ab"/>
        <rect x="327.4" y="74.4" width="25.5" height="26.9" fill="#ff57ab"/>
        <rect x="327.4" y="44.7" width="25.5" height="28.3" fill="#ff57ab"/>
      </g>
      <g>
        <rect x="440.8" y="386.3" width="25.5" height="26.9" fill="#ff57ab"/>
        <rect x="440.8" y="357.9" width="25.5" height="26.9" fill="#ff57ab"/>
        <rect x="440.8" y="329.6" width="25.5" height="26.9" fill="#ff57ab"/>
        <rect x="440.8" y="301.2" width="25.5" height="26.9" fill="#ff57ab"/>
        <rect x="440.8" y="272.9" width="25.5" height="26.9" fill="#ff57ab"/>
        <rect x="440.8" y="244.5" width="25.5" height="26.9" fill="#ff57ab"/>
        <rect x="440.8" y="216.2" width="25.5" height="26.9" fill="#ff57ab"/>
        <rect x="440.8" y="187.8" width="25.5" height="26.9" fill="#ff57ab"/>
        <rect x="440.8" y="159.5" width="25.5" height="26.9" fill="#ff57ab"/>
        <rect x="440.8" y="131.1" width="25.5" height="26.9" fill="#ff57ab"/>
        <rect x="440.8" y="102.8" width="25.5" height="26.9" fill="#ff57ab"/>
        <rect x="440.8" y="74.4" width="25.5" height="26.9" fill="#ff57ab"/>
        <rect x="440.8" y="44.7" width="25.5" height="28.3" fill="#ff57ab"/>
      </g>
      <g>
        <rect x="100.6" y="386.3" width="25.5" height="26.9" fill="#ff57ab"/>
        <rect x="100.6" y="357.9" width="25.5" height="26.9" fill="#ff57ab"/>
        <rect x="100.6" y="329.6" width="25.5" height="26.9" fill="#ff57ab"/>
        <rect x="100.6" y="301.2" width="25.5" height="26.9" fill="#ff57ab"/>
        <rect x="100.6" y="272.9" width="25.5" height="26.9" fill="#ff57ab"/>
        <rect x="100.6" y="244.5" width="25.5" height="26.9" fill="#ff57ab"/>
        <rect x="100.6" y="216.2" width="25.5" height="26.9" fill="#ff57ab"/>
        <rect x="100.6" y="187.8" width="25.5" height="26.9" fill="#ff57ab"/>
        <rect x="100.6" y="159.5" width="25.5" height="26.9" fill="#ff57ab"/>
        <rect x="100.6" y="131.1" width="25.5" height="26.9" fill="#ff57ab"/>
        <rect x="100.6" y="102.8" width="25.5" height="26.9" fill="#ff57ab"/>
        <rect x="100.6" y="74.4" width="25.5" height="26.9" fill="#ff57ab"/>
        <rect x="100.6" y="44.7" width="25.5" height="28.3" fill="#ff57ab"/>
      </g>
    </g>
    <g id="keys">
      <rect x="42.5" y="44.7" width="28.3" height="178.6" fill="#262626"/>
      <rect x="14.2" y="44.7" width="28.3" height="368.5" fill="#fff"/>
      <rect x="70.9" y="44.7" width="28.3" height="368.5" fill="#fff"/>
      <rect x="127.6" y="44.7" width="28.3" height="368.5" fill="#fff"/>
      <rect x="184.3" y="44.7" width="28.3" height="368.5" fill="#fff"/>
      <rect x="240.9" y="44.7" width="28.3" height="368.5" fill="#fff"/>
      <rect x="297.6" y="44.7" width="28.3" height="368.5" fill="#fff"/>
      <rect x="354.3" y="44.7" width="28.3" height="368.5" fill="#fff"/>
      <rect x="411" y="44.7" width="28.3" height="368.5" fill="#fff"/>
      <rect x="99.2" y="44.7" width="28.3" height="178.6" fill="#262626"/>
      <rect x="212.6" y="44.7" width="28.3" height="178.6" fill="#262626"/>
      <rect x="269.3" y="44.7" width="28.3" height="178.6" fill="#262626"/>
      <rect x="326" y="44.7" width="28.3" height="178.6" fill="#262626"/>
      <rect x="439.4" y="44.7" width="28.3" height="178.6" fill="#262626"/>
    </g>
  </g>
</svg>